<?xml version="1.0" standalone="no"?>
<!DOCTYPE svg PUBLIC "-//W3C//DTD SVG 20010904//EN"
 "http://www.w3.org/TR/2001/REC-SVG-20010904/DTD/svg10.dtd">
<svg version="1.0" xmlns="http://www.w3.org/2000/svg"
 width="256.000000pt" height="256.000000pt" viewBox="0 0 256.000000 256.000000"
 preserveAspectRatio="xMidYMid meet">

<g transform="translate(0.000000,256.000000) scale(0.100000,-0.100000)"
fill="#000000" stroke="none">
<path d="M1181 2427 c-41 -20 -64 -62 -69 -122 l-4 -55 -305 0 c-337 0 -357
-3 -393 -62 -41 -68 -14 -165 55 -194 51 -21 1579 -21 1630 0 69 29 96 126 55
194 -36 59 -56 62 -393 62 l-305 0 -4 55 c-8 100 -52 135 -168 135 -41 0 -86
-6 -99 -13z m179 -86 c5 -11 10 -36 10 -55 l0 -36 -90 0 -90 0 0 36 c0 64 12
74 90 74 58 0 71 -3 80 -19z m714 -187 c20 -20 20 -58 0 -78 -14 -14 -100 -16
-794 -16 -849 0 -810 -3 -810 55 0 58 -39 55 810 55 694 0 780 -2 794 -16z"/>
<path d="M456 1867 c-18 -13 -14 -49 103 -868 68 -469 127 -859 133 -866 15
-19 1161 -19 1176 0 6 7 65 397 133 866 116 818 121 855 103 868 -27 19 -1621
19 -1648 0z m1574 -79 c1 -7 -50 -367 -112 -801 l-112 -787 -526 0 -525 0
-113 792 c-62 436 -113 796 -112 801 0 4 338 7 750 7 593 0 750 -3 750 -12z"/>
<path d="M802 1558 c-12 -15 62 -1056 78 -1096 11 -26 42 -29 61 -6 10 13 6
103 -25 522 -21 279 -41 525 -44 547 -6 33 -12 41 -33 43 -14 2 -31 -3 -37
-10z"/>
<path d="M1043 1558 c-14 -17 67 -1092 83 -1108 15 -15 44 -9 57 12 8 12 0
161 -27 525 -20 279 -40 524 -44 543 -6 28 -13 36 -33 38 -14 2 -30 -3 -36
-10z"/>
<path d="M1441 1548 c-6 -13 -24 -214 -41 -448 -18 -234 -35 -470 -40 -525 -4
-58 -4 -107 2 -117 11 -22 41 -23 58 -3 14 16 93 979 88 1065 -3 41 -6 45 -30
48 -21 3 -30 -2 -37 -20z"/>
<path d="M1684 1558 c-14 -21 -92 -1080 -82 -1100 9 -19 35 -23 57 -9 11 7 22
107 48 443 18 238 34 487 35 553 l3 120 -27 3 c-14 2 -30 -3 -34 -10z"/>
</g>
</svg>
